<svg
  width="114"
  height="70"
  viewBox="0 0 114 70"
  fill="none"
  xmlns="http://www.w3.org/2000/svg"
>
  <g id="icon">
    <g id="green">
      <path
        id="Path"
        d="M31.621 14.1857L22.2637 6.45093L4.76662 16.5653C2.13424 18.087 1.24648 21.4578 2.74773 24.0613L21.6173 56.7846C23.1188 59.3883 26.4781 60.3037 29.1105 58.782L52.8588 45.0541C55.4915 43.5322 56.3791 40.1618 54.8777 37.5581L39.8883 11.5637L31.621 14.1857Z"
        fill="#00EFD1"
      />
      <path
        id="Path_2"
        d="M22.2056 6.46005L39.7376 11.8521L32.3301 15.9632C30.2731 17.1048 27.6992 16.3829 26.573 14.3489L22.2056 6.46005Z"
        fill="#FEDB41"
      />
    </g>
    <g id="yellow">
      <path
        id="Path_3"
        d="M97.4819 30.2323L100.117 18.3731L83.173 7.35597C80.6234 5.69824 77.2209 6.43681 75.5856 8.95802L55.0314 40.6477C53.3959 43.1692 54.1062 46.5815 56.6557 48.2392L79.6536 63.1925C82.2031 64.8503 85.6057 64.1122 87.2412 61.5907L103.569 36.4174L97.4819 30.2323Z"
        fill="#FEDB41"
      />
      <path
        id="Path_4"
        d="M100.305 18.399L104.095 36.3659L96.9124 31.8722C94.9179 30.6244 94.3007 28.0205 95.5316 26.0482L100.305 18.399Z"
        fill="#00ACEA"
      />
    </g>
    <g id="blue">
      <path
        id="Path_5"
        d="M66.3253 11.3826L62.0843 0H41.8808C38.8408 0 36.389 2.47447 36.389 5.48104V43.2666C36.389 46.2732 38.8408 48.7477 41.8808 48.7477H69.303C72.3426 48.7477 74.7948 46.2732 74.7948 43.2666V13.2509L66.3253 11.3826Z"
        fill="#00ACEA"
      />
      <path
        id="Path_6"
        d="M62.0843 0.0374146L74.8073 13.2635H66.3378C63.986 13.2635 62.0843 11.3828 62.0843 9.05711V0.0374146Z"
        fill="#00EFD1"
      />
      <g id="Group">
        <path
          id="Path_7"
          d="M65.8876 39.5919H45.2962C44.6077 39.5919 44.0447 40.1485 44.0447 40.8293C44.0447 41.5099 44.6077 42.0664 45.2962 42.0664H65.8998C66.5882 42.0664 67.1506 41.5099 67.1506 40.8293C67.1506 40.1485 66.5882 39.5919 65.8876 39.5919V39.5919Z"
          fill="#083863"
        />
        <path
          id="Path_8"
          d="M49.1489 25.6605L54.2779 20.1794V33.6904C54.2779 34.3706 54.8409 34.9274 55.5294 34.9274C56.2171 34.9274 56.7802 34.3706 56.7802 33.6904V20.1794L61.9715 25.6605C62.2218 25.9205 62.5725 26.0565 62.8978 26.0565C63.1976 26.0565 63.5103 25.9449 63.7606 25.7225C64.261 25.252 64.2987 24.4727 63.8233 23.9781L56.5051 16.1955C56.2673 15.9479 55.942 15.7998 55.5917 15.7998C55.2418 15.7998 54.9165 15.9479 54.6787 16.1955L47.3605 23.9781C46.8851 24.4727 46.8977 25.2648 47.4106 25.7225C47.9106 26.1926 48.6861 26.1554 49.1489 25.6605Z"
          fill="#083863"
        />
      </g>
    </g>
  </g>
</svg>
